<?xml version="1.0" encoding="UTF-8"?>
<svg id="Layer_2" data-name="Layer 2" xmlns="http://www.w3.org/2000/svg" viewBox="0 0 330 148.72">
  <defs>
    <style>
      .cls-1 {
        fill: #ddddba;
      }

      .cls-1, .cls-2, .cls-3, .cls-4, .cls-5 {
        stroke-width: 0px;
      }

      .cls-2 {
        fill: #98946c;
      }

      .cls-3 {
        fill: #b6be9b;
      }

      .cls-4 {
        fill: #f3f9d2;
      }

      .cls-5 {
        fill: #777a58;
      }
    </style>
  </defs>
  <g id="_レイヤー_26" data-name="レイヤー 26">
    <g>
      <rect class="cls-2" x="9.62" y="13.32" width="304.1" height="126.52"/>
      <rect class="cls-3" x="111.73" y="44.39" width="105.07" height="71.77"/>
      <rect class="cls-3" x="244.17" y="44.39" width="56.97" height="95.45"/>
      <rect class="cls-1" x="26.64" y="31.08" width="79.17" height="27.38"/>
      <rect class="cls-1" x="31.08" y="92.49" width="30.34" height="30.34"/>
      <rect class="cls-1" x="263.41" y="21.46" width="37.74" height="19.24"/>
      <rect class="cls-1" x="147.98" y="40.7" width="43.65" height="85.83"/>
      <rect class="cls-4" x="259.71" y="69.55" width="16.28" height="42.17"/>
      <rect class="cls-4" width="319.64" height="17.02"/>
      <rect class="cls-4" x="309.28" y="8.88" width="20.72" height="136.14"/>
      <rect class="cls-4" y="133.92" width="330" height="14.8"/>
      <rect class="cls-4" x="140.58" y="58.45" width="53.27" height="53.27"/>
      <rect class="cls-5" x="251.57" y="102.11" width="42.91" height="24.42"/>
      <rect class="cls-5" x="26.64" y="21.46" width="53.27" height="19.24"/>
      <rect class="cls-5" x="42.17" y="69.55" width="66.59" height="15.54"/>
      <rect class="cls-5" x="76.21" y="122.83" width="71.77" height="11.1"/>
      <rect class="cls-5" x="244.17" y="27.38" width="59.93" height="17.76"/>
      <rect class="cls-5" x="275.99" y="62.89" width="14.8" height="45.13"/>
      <rect class="cls-5" x="101.37" y="17.02" width="65.85" height="14.06"/>
      <rect class="cls-5" x="159.82" y="126.52" width="39.96" height="7.4"/>
      <rect class="cls-5" x="165.74" y="108.03" width="27.38" height="3.7"/>
      <rect class="cls-5" x="179.06" y="54.01" width="17.76" height="4.44"/>
      <rect class="cls-5" x="136.88" y="74.73" width="3.7" height="17.76"/>
      <rect class="cls-4" x="259.71" y="99.15" width="8.14" height="12.58"/>
      <rect class="cls-5" x="251.57" y="50.31" width="42.91" height="19.24"/>
      <rect class="cls-1" x="244.17" y="116.17" width="37.74" height="17.76"/>
      <rect class="cls-4" width="19.98" height="148.72"/>
    </g>
  </g>
</svg>