<?xml version="1.0" encoding="UTF-8"?>
<svg id="Layer_2" data-name="Layer 2" xmlns="http://www.w3.org/2000/svg" viewBox="0 0 650.12 406">
  <defs>
    <style>
      .cls-1 {
        fill: #d4f4f2;
      }

      .cls-1, .cls-2 {
        stroke-width: 0px;
      }

      .cls-2 {
        fill: #8fb3f2;
      }
    </style>
  </defs>
  <g id="_レイヤー_12" data-name="レイヤー 12">
    <g>
      <rect class="cls-2" x="48.95" y="65.93" width="284.59" height="120.1"/>
      <rect class="cls-2" x="281.98" y="120.1" width="153.39" height="133.16"/>
      <rect class="cls-2" x="157.96" y="31.33" width="130.55" height="88.77"/>
      <rect class="cls-2" x="133.16" y="142.3" width="225.19" height="67.23"/>
      <rect class="cls-2" x="133.16" y="47.65" width="291.77" height="78.33"/>
      <rect class="cls-2" x="364.23" y="176.24" width="112.27" height="112.27"/>
      <rect class="cls-2" x="435.37" y="245.43" width="101.17" height="72.45"/>
      <rect class="cls-2" x="494.77" y="295.69" width="142.3" height="63.32"/>
      <rect class="cls-2" x="443.21" y="342.68" width="82.9" height="63.32"/>
      <rect class="cls-2" x="443.21" y="207.68" width="82.9" height="63.32"/>
      <rect class="cls-2" x="590.72" y="336.16" width="59.4" height="46.34"/>
      <rect class="cls-2" x="531.32" y="281.98" width="51.57" height="35.9"/>
      <rect class="cls-2" x="288.51" width="237.59" height="47.65"/>
      <rect class="cls-1" x="157.96" y="162.53" width="149.48" height="31.33"/>
      <rect class="cls-1" x="346.6" y="209.53" width="43.73" height="29.37"/>
      <rect class="cls-1" x="253.26" y="41.12" width="105.09" height="14.36"/>
      <rect class="cls-1" x="407.31" y="86.81" width="17.62" height="39.16"/>
      <rect class="cls-1" x="458.87" y="232.37" width="13.05" height="13.05"/>
      <rect class="cls-1" x="511.74" y="327.67" width="31.33" height="15.01"/>
      <rect class="cls-1" x="565.92" y="288.51" width="32.64" height="21.54"/>
      <rect class="cls-2" y="106.4" width="104.44" height="48.3"/>
    </g>
  </g>
</svg>