<?xml version="1.0" encoding="UTF-8"?>
<svg id="Layer_2" data-name="Layer 2" xmlns="http://www.w3.org/2000/svg" viewBox="0 0 694.17 655">
  <defs>
    <style>
      .cls-1 {
        fill: #f2003e;
      }

      .cls-1, .cls-2, .cls-3, .cls-4, .cls-5, .cls-6, .cls-7, .cls-8 {
        stroke-width: 0px;
      }

      .cls-2 {
        fill: aqua;
      }

      .cls-3 {
        fill: #ed1c24;
      }

      .cls-4 {
        fill: #ff0;
      }

      .cls-5 {
        fill: #f15a24;
      }

      .cls-6 {
        fill: #f2f2f2;
      }

      .cls-7 {
        fill: #f2c768;
      }

      .cls-8 {
        fill: #e6e6e6;
      }
    </style>
  </defs>
  <g id="_レイヤー_10" data-name="レイヤー 10">
    <g>
      <rect class="cls-6" y="305.12" width="302.71" height="252.39"/>
      <rect class="cls-6" x="151.02" y="217.29" width="293.98" height="214.03"/>
      <rect class="cls-6" x="60.41" y="202.14" width="128.2" height="122.16"/>
      <rect class="cls-1" x="247" y="171.85" width="51.01" height="90.86"/>
      <rect class="cls-7" x="96.65" y="431.32" width="163.1" height="164.56"/>
      <rect class="cls-7" x="259.75" y="388.91" width="122.83" height="55.53"/>
      <rect class="cls-7" x="382.58" y="340.45" width="24.83" height="112.06"/>
      <rect class="cls-7" x="177.87" y="487.85" width="167.13" height="57.55"/>
      <rect class="cls-7" x="60.41" y="444.44" width="36.24" height="164.56"/>
      <rect class="cls-7" x="18.12" y="431.32" width="17.45" height="177.68"/>
      <rect class="cls-6" x="26.85" y="474.73" width="171.83" height="13.12"/>
      <rect class="cls-6" x="26.85" y="526.21" width="191.96" height="31.3"/>
      <rect class="cls-6" x="254.38" y="541.36" width="108.06" height="30.29"/>
      <rect class="cls-6" x="320.83" y="416.17" width="124.17" height="15.14"/>
      <rect class="cls-7" x="298.01" y="431.32" width="146.99" height="94.9"/>
      <rect class="cls-7" x="247" y="497.95" width="146.99" height="94.9"/>
      <rect class="cls-6" x="229.55" y="507.03" width="124.84" height="13.12"/>
      <rect class="cls-6" x="314.12" y="445.45" width="124.84" height="13.12"/>
      <rect class="cls-8" x="87.63" y="190.21" width="28.84" height="106.78"/>
      <rect class="cls-8" x="78.76" y="350.38" width="58.79" height="30.03"/>
      <rect class="cls-8" x="202.99" y="370.41" width="80.98" height="8.34"/>
      <rect class="cls-8" x="321.69" y="305.33" width="53.24" height="45.05"/>
      <rect class="cls-8" x="366.06" y="243.6" width="55.46" height="18.35"/>
      <rect class="cls-8" x="218.52" y="291.99" width="32.17" height="36.71"/>
      <rect class="cls-8" x="29.95" y="392.1" width="29.95" height="16.68"/>
      <rect class="cls-8" x="321.69" y="415.45" width="103.16" height="8.34"/>
      <rect class="cls-8" x="407.1" y="305.33" width="34.39" height="118.46"/>
      <rect class="cls-8" x="229.62" y="507.22" width="128.67" height="6.67"/>
      <rect class="cls-8" x="45.48" y="475.52" width="164.17" height="11.68"/>
      <rect class="cls-8" x="59.9" y="533.92" width="260.68" height="11.68"/>
      <rect class="cls-8" x="276.21" y="462.17" width="45.48" height="25.03"/>
      <rect class="cls-2" x="158.62" y="141.82" width="18.86" height="193.55"/>
      <rect class="cls-2" x="352.74" y="68.41" width="18.86" height="193.55"/>
      <rect class="cls-4" x="158.62" y="103.45" width="8.87" height="46.72"/>
      <rect class="cls-5" x="163.06" y="86.76" width="12.2" height="63.4"/>
      <rect class="cls-3" x="158.62" y="78.42" width="8.87" height="33.37"/>
      <rect class="cls-4" x="353.85" y="25.03" width="8.87" height="46.72"/>
      <rect class="cls-5" x="358.29" y="8.34" width="12.2" height="63.4"/>
      <rect class="cls-3" x="353.85" width="8.87" height="33.37"/>
      <rect class="cls-6" x="293" y="472.87" width="272.89" height="151.27"/>
      <rect class="cls-6" x="429.14" y="420.23" width="265.03" height="128.28"/>
      <rect class="cls-6" x="347.46" y="411.15" width="115.57" height="73.21"/>
      <rect class="cls-1" x="515.67" y="393" width="45.99" height="54.46"/>
      <rect class="cls-7" x="380.13" y="548.51" width="147.03" height="98.63"/>
      <rect class="cls-7" x="527.17" y="523.09" width="110.73" height="33.28"/>
      <rect class="cls-7" x="637.9" y="494.05" width="22.39" height="67.16"/>
      <rect class="cls-7" x="453.35" y="582.39" width="150.67" height="34.49"/>
      <rect class="cls-7" x="347.46" y="556.37" width="32.67" height="98.63"/>
      <rect class="cls-7" x="309.34" y="548.51" width="15.73" height="106.49"/>
      <rect class="cls-6" x="317.2" y="574.52" width="154.9" height="7.87"/>
      <rect class="cls-6" x="317.2" y="605.38" width="173.05" height="18.76"/>
      <rect class="cls-6" x="522.33" y="614.46" width="97.42" height="18.15"/>
      <rect class="cls-6" x="582.23" y="539.43" width="111.94" height="9.08"/>
      <rect class="cls-7" x="561.66" y="548.51" width="132.51" height="56.88"/>
      <rect class="cls-7" x="515.67" y="588.44" width="132.51" height="56.88"/>
      <rect class="cls-6" x="499.94" y="593.89" width="112.55" height="7.87"/>
      <rect class="cls-6" x="576.18" y="556.98" width="112.55" height="7.87"/>
      <rect class="cls-8" x="372" y="404" width="26" height="64"/>
      <rect class="cls-8" x="364" y="500" width="53" height="18"/>
      <rect class="cls-8" x="476" y="512" width="73" height="5"/>
      <rect class="cls-8" x="583" y="473" width="48" height="27"/>
      <rect class="cls-8" x="623" y="436" width="50" height="11"/>
      <rect class="cls-8" x="490" y="465" width="29" height="22"/>
      <rect class="cls-8" x="320" y="525" width="27" height="10"/>
      <rect class="cls-8" x="583" y="539" width="93" height="5"/>
      <rect class="cls-8" x="660" y="473" width="31" height="71"/>
      <rect class="cls-8" x="500" y="594" width="116" height="4"/>
      <rect class="cls-8" x="334" y="575" width="148" height="7"/>
      <rect class="cls-8" x="347" y="610" width="235" height="7"/>
      <rect class="cls-8" x="542" y="567" width="41" height="15"/>
      <rect class="cls-2" x="436" y="375" width="17" height="116"/>
      <rect class="cls-2" x="611" y="331" width="17" height="116"/>
      <rect class="cls-4" x="436" y="352" width="8" height="28"/>
      <rect class="cls-5" x="440" y="342" width="11" height="38"/>
      <rect class="cls-3" x="436" y="337" width="8" height="20"/>
      <rect class="cls-4" x="612" y="305" width="8" height="28"/>
      <rect class="cls-5" x="616" y="295" width="11" height="38"/>
      <rect class="cls-3" x="612" y="290" width="8" height="20"/>
    </g>
  </g>
</svg>