<?xml version="1.0" encoding="UTF-8"?>
<svg id="Layer_2" data-name="Layer 2" xmlns="http://www.w3.org/2000/svg" viewBox="0 0 121 226">
  <defs>
    <style>
      .cls-1 {
        fill: #000;
      }

      .cls-1, .cls-2, .cls-3 {
        stroke-width: 0px;
      }

      .cls-2 {
        fill: #00a86a;
      }

      .cls-3 {
        fill: #f3006a;
      }
    </style>
  </defs>
  <g id="_レイヤー_25" data-name="レイヤー 25">
    <g>
      <rect class="cls-3" y="12" width="121" height="121"/>
      <rect class="cls-3" x="17" y="96" width="80" height="130"/>
      <rect class="cls-2" x="35" width="51" height="18"/>
      <rect class="cls-1" x="7" y="22" width="11" height="11"/>
      <rect class="cls-1" x="47" y="25" width="11" height="11"/>
      <rect class="cls-1" x="67" y="47" width="11" height="11"/>
      <rect class="cls-1" x="101" y="47" width="11" height="11"/>
      <rect class="cls-1" x="13" y="70" width="11" height="11"/>
      <rect class="cls-1" x="29" y="70" width="11" height="11"/>
      <rect class="cls-1" x="63" y="70" width="11" height="11"/>
      <rect class="cls-1" x="19" y="47" width="11" height="11"/>
      <rect class="cls-1" x="97" y="70" width="11" height="11"/>
      <rect class="cls-1" x="13" y="112" width="11" height="11"/>
      <rect class="cls-1" x="29" y="112" width="11" height="11"/>
      <rect class="cls-1" x="63" y="112" width="11" height="11"/>
      <rect class="cls-1" x="97" y="112" width="11" height="11"/>
      <rect class="cls-1" x="25" y="135" width="11" height="11"/>
      <rect class="cls-1" x="42" y="135" width="11" height="11"/>
      <rect class="cls-1" x="58" y="153" width="11" height="11"/>
      <rect class="cls-1" x="76" y="135" width="11" height="11"/>
      <rect class="cls-1" x="33" y="93" width="11" height="11"/>
      <rect class="cls-1" x="50" y="93" width="11" height="11"/>
      <rect class="cls-1" x="73" y="200" width="11" height="11"/>
      <rect class="cls-1" x="84" y="93" width="11" height="11"/>
      <rect class="cls-1" x="36" y="183" width="11" height="11"/>
    </g>
  </g>
</svg>