<?xml version="1.0" encoding="UTF-8"?>
<svg id="Layer_2" data-name="Layer 2" xmlns="http://www.w3.org/2000/svg" viewBox="0 0 668 228">
  <defs>
    <style>
      .cls-1 {
        fill: #e3e9b5;
      }

      .cls-1, .cls-2, .cls-3, .cls-4 {
        stroke-width: 0px;
      }

      .cls-2 {
        fill: #a27f3e;
      }

      .cls-3 {
        fill: #d0c488;
      }

      .cls-4 {
        fill: #dfb04f;
      }
    </style>
  </defs>
  <g id="_レイヤー_8" data-name="レイヤー 8">
    <g>
      <rect class="cls-3" x="125" y="16" width="520" height="55"/>
      <rect class="cls-3" x="80" y="52" width="524" height="50"/>
      <rect class="cls-3" x="39" y="71" width="606" height="107"/>
      <rect class="cls-1" x="146" y="37" width="286" height="78"/>
      <rect class="cls-1" x="349" y="76" width="175" height="51"/>
      <rect class="cls-1" x="125" y="76" width="97" height="62"/>
      <rect class="cls-1" x="390" y="61" width="101" height="29"/>
      <rect class="cls-4" x="262" y="52" width="143" height="38"/>
      <rect class="cls-2" y="61" width="39" height="117"/>
      <rect class="cls-2" x="12" y="37" width="68" height="40"/>
      <rect class="cls-2" x="46" width="79" height="52"/>
      <rect class="cls-2" x="12" y="150" width="633" height="78"/>
      <rect class="cls-2" x="620" y="76" width="37" height="82"/>
      <rect class="cls-2" x="638" y="26" width="30" height="91"/>
      <rect class="cls-2" x="638" width="30" height="26"/>
      <rect class="cls-2" x="107" width="546" height="16"/>
    </g>
  </g>
</svg>