<?xml version="1.0" encoding="UTF-8"?>
<svg id="Layer_2" data-name="Layer 2" xmlns="http://www.w3.org/2000/svg" viewBox="0 0 255.02 220">
  <defs>
    <style>
      .cls-1 {
        fill: #6f511d;
      }

      .cls-1, .cls-2, .cls-3 {
        stroke-width: 0px;
      }

      .cls-2 {
        fill: #6fe679;
      }

      .cls-3 {
        fill: #fff;
      }
    </style>
  </defs>
  <g id="_レイヤー_4" data-name="レイヤー 4">
    <g>
      <rect class="cls-1" x="26.49" y="22" width="158.49" height="178.69"/>
      <rect class="cls-2" y="30.08" width="26.49" height="30.98"/>
      <rect class="cls-2" x="10.78" y="50.29" width="67.35" height="35.47"/>
      <rect class="cls-2" x="68.69" y="70.49" width="83.06" height="18.41"/>
      <rect class="cls-2" x="2.69" y="74.08" width="20.65" height="40.41"/>
      <rect class="cls-2" x="34.57" y="79.92" width="26.49" height="98.78"/>
      <rect class="cls-2" x="61.06" y="74.08" width="42.65" height="133.35"/>
      <rect class="cls-2" x="52.98" y="181.39" width="127.06" height="26.04"/>
      <rect class="cls-2" x="119.43" y="85.76" width="25.14" height="114.94"/>
      <rect class="cls-2" x="116.73" y="59.71" width="60.61" height="20.2"/>
      <rect class="cls-2" x="158.49" y="44.9" width="31.43" height="18.86"/>
      <rect class="cls-2" x="4.94" y="15.71" width="29.63" height="19.31"/>
      <rect class="cls-2" x="26.49" y="6.73" width="26.04" height="16.61"/>
      <rect class="cls-2" x="47.14" width="44" height="18.86"/>
      <rect class="cls-2" x="80.82" width="44.9" height="7.18"/>
      <rect class="cls-2" x="184.98" y="25.59" width="12.57" height="155.8"/>
      <rect class="cls-2" x="168.82" y="129.31" width="18.41" height="60.61"/>
      <rect class="cls-2" x="92.49" y="204.73" width="59.27" height="15.27"/>
      <rect class="cls-2" x="44.45" y="204.73" width="77.67" height="7.63"/>
      <rect class="cls-2" x="144.57" y="200.69" width="68.24" height="11.67"/>
      <rect class="cls-2" x="197.55" y="70.49" width="22" height="9.43"/>
      <rect class="cls-2" x="180.49" y="155.35" width="52.08" height="9.88"/>
      <rect class="cls-2" x="191.27" y="143.22" width="21.55" height="21.55"/>
      <rect class="cls-2" x="191.27" y="63.76" width="17.51" height="11.67"/>
      <rect class="cls-2" x="68.69" y="9.43" width="53.43" height="12.57"/>
      <rect class="cls-2" x="118.08" y="15.71" width="51.18" height="6.29"/>
      <rect class="cls-2" x="13.02" y="114.49" width="6.73" height="45.35"/>
      <rect class="cls-2" x="16.61" y="147.71" width="36.37" height="6.29"/>
      <rect class="cls-2" x="16.61" y="154" width="52.08" height="14.37"/>
      <rect class="cls-2" x="170.16" y="48.49" width="55.22" height="13.92"/>
      <rect class="cls-2" x="178.69" y="111.35" width="12.57" height="95.18"/>
      <rect class="cls-2" x="23.35" y="164.78" width="39.96" height="39.96"/>
      <rect class="cls-2" x="16.16" y="79.47" width="14.37" height="71.39"/>
      <rect class="cls-2" x="189.92" y="44.9" width="44.45" height="18.86"/>
      <rect class="cls-2" x="122.12" y="6.29" width="43.1" height="3.14"/>
      <rect class="cls-2" x="163.88" y="3.14" width="3.59" height="3.59"/>
      <rect class="cls-2" x="176" y="14.82" width="8.98" height="1.8"/>
      <rect class="cls-3" x="65.55" y="28.73" width="40.41" height="2.24"/>
      <rect class="cls-3" x="122.12" y="30.98" width="29.63" height="2.24"/>
      <rect class="cls-3" x="82.16" y="44.9" width="15.27" height="1.35"/>
      <rect class="cls-3" x="111.35" y="38.16" width="49.84" height="1.35"/>
      <rect class="cls-3" x="113.14" y="50.29" width="30.53" height="1.8"/>
      <rect class="cls-2" x="23.35" y="74.08" width="24.24" height="79.92"/>
      <rect class="cls-2" x="92.04" y="85.76" width="76.78" height="112.24"/>
      <rect class="cls-2" x="146.82" y="68.24" width="43.1" height="79.47"/>
      <rect class="cls-2" x="177.35" y="59.71" width="10.78" height="10.78"/>
      <rect class="cls-2" x="213.27" y="51.63" width="41.76" height="14.37"/>
      <rect class="cls-2" x="237.96" y="78.12" width="17.06" height="82.16"/>
      <rect class="cls-2" x="225.39" y="62.41" width="12.57" height="15.71"/>
      <rect class="cls-2" x="225.39" y="133.8" width="21.1" height="31.43"/>
      <rect class="cls-2" x="231.67" y="66" width="23.35" height="20.2"/>
      <rect class="cls-2" x="197.55" y="74.08" width="4.49" height="37.27"/>
      <rect class="cls-2" x="197.55" y="132" width="4.49" height="32.78"/>
    </g>
  </g>
</svg>