<?xml version="1.0" encoding="UTF-8"?>
<svg id="Layer_2" data-name="Layer 2" xmlns="http://www.w3.org/2000/svg" viewBox="0 0 425 701">
  <defs>
    <style>
      .cls-1 {
        fill: #8f6a60;
      }

      .cls-1, .cls-2, .cls-3 {
        stroke-width: 0px;
      }

      .cls-2 {
        fill: #e0c392;
      }

      .cls-3 {
        fill: #d1c7bf;
      }
    </style>
  </defs>
  <g id="_レイヤー_23" data-name="レイヤー 23">
    <g>
      <rect class="cls-1" x="128" y="45" width="159" height="159"/>
      <rect class="cls-1" x="20" y="312" width="97" height="112"/>
      <rect class="cls-1" x="338" y="312" width="87" height="126"/>
      <rect class="cls-1" x="97" y="177" width="233" height="111"/>
      <rect class="cls-1" x="68" y="251" width="313" height="353"/>
      <rect class="cls-1" x="20" y="575" width="187" height="75"/>
      <rect class="cls-1" x="287" y="575" width="138" height="85"/>
      <rect class="cls-1" y="618" width="168" height="70"/>
      <rect class="cls-1" x="318" y="634" width="107" height="67"/>
      <rect class="cls-1" x="117" y="10" width="51" height="65"/>
      <rect class="cls-1" x="245" width="42" height="56"/>
      <rect class="cls-2" x="168" y="251" width="119" height="266"/>
      <rect class="cls-3" x="158" y="145" width="18" height="34"/>
      <rect class="cls-3" x="245" y="145" width="21" height="32"/>
      <rect class="cls-3" x="20" y="297" width="15" height="46"/>
      <rect class="cls-3" x="51" y="296" width="10" height="32"/>
      <rect class="cls-3" x="84" y="296" width="13" height="47"/>
      <rect class="cls-3" x="348" y="289" width="15" height="46"/>
      <rect class="cls-3" x="379" y="288" width="10" height="32"/>
      <rect class="cls-3" x="412" y="288" width="13" height="47"/>
    </g>
  </g>
</svg>