<?xml version="1.0" encoding="UTF-8"?>
<svg id="Layer_2" data-name="Layer 2" xmlns="http://www.w3.org/2000/svg" viewBox="0 0 585 153">
  <defs>
    <style>
      .cls-1 {
        fill: #eed604;
      }

      .cls-1, .cls-2, .cls-3, .cls-4, .cls-5, .cls-6 {
        stroke-width: 0px;
      }

      .cls-2 {
        fill: #b3b3b3;
      }

      .cls-3 {
        fill: #53c108;
      }

      .cls-4 {
        fill: #e32400;
      }

      .cls-5 {
        fill: #2e6cdb;
      }

      .cls-6 {
        fill: #ccc;
      }
    </style>
  </defs>
  <g id="_レイヤー_24" data-name="レイヤー 24">
    <g>
      <g>
        <g>
          <rect class="cls-6" x="111" y="19" width="14" height="37"/>
          <rect class="cls-6" x="98" y="24" width="17" height="17"/>
          <rect class="cls-6" x="77" y="19" width="27" height="10"/>
          <rect class="cls-6" x="57" y="19" width="26" height="10"/>
          <rect class="cls-6" x="39" y="24" width="35" height="14"/>
          <rect class="cls-6" x="29" y="35" width="23" height="16"/>
          <rect class="cls-6" x="22" y="47" width="30" height="35"/>
          <rect class="cls-6" x="29" y="73" width="23" height="25"/>
          <rect class="cls-6" x="37" y="93" width="27" height="13"/>
          <rect class="cls-6" x="50" y="100" width="24" height="15"/>
          <rect class="cls-6" x="67" y="106" width="19" height="11"/>
          <rect class="cls-6" x="80" y="108" width="18" height="7"/>
          <rect class="cls-6" x="94" y="100" width="34" height="15"/>
          <rect class="cls-6" x="98" y="76" width="27" height="27"/>
          <rect class="cls-6" x="83" y="71" width="55" height="11"/>
        </g>
        <g>
          <rect class="cls-6" x="177" y="47" width="23" height="14"/>
          <rect class="cls-6" x="193" y="51" width="19" height="19"/>
          <rect class="cls-6" x="200" y="61" width="23" height="35"/>
          <rect class="cls-6" x="200" y="93" width="17" height="13"/>
          <rect class="cls-6" x="198" y="103" width="14" height="9"/>
          <rect class="cls-6" x="167" y="54" width="16" height="7"/>
          <rect class="cls-6" x="159" y="58" width="13" height="13"/>
          <rect class="cls-6" x="150" y="65" width="22" height="35"/>
          <rect class="cls-6" x="155" y="93" width="22" height="15"/>
          <rect class="cls-6" x="165" y="103" width="18" height="16"/>
          <rect class="cls-6" x="177" y="108" width="21" height="9"/>
          <rect class="cls-6" x="193" y="105" width="12" height="12"/>
        </g>
        <g>
          <rect class="cls-6" x="268" y="51" width="23" height="14"/>
          <rect class="cls-6" x="284" y="55" width="19" height="19"/>
          <rect class="cls-6" x="291" y="65" width="23" height="35"/>
          <rect class="cls-6" x="291" y="97" width="17" height="13"/>
          <rect class="cls-6" x="289" y="107" width="14" height="9"/>
          <rect class="cls-6" x="258" y="58" width="16" height="7"/>
          <rect class="cls-6" x="250" y="62" width="13" height="13"/>
          <rect class="cls-6" x="241" y="68" width="22" height="35"/>
          <rect class="cls-6" x="246" y="97" width="22" height="15"/>
          <rect class="cls-6" x="256" y="107" width="18" height="16"/>
          <rect class="cls-6" x="268" y="112" width="21" height="9"/>
          <rect class="cls-6" x="284" y="109" width="12" height="12"/>
        </g>
        <g>
          <rect class="cls-6" x="496" y="48" width="23" height="14"/>
          <rect class="cls-6" x="512" y="52" width="19" height="19"/>
          <rect class="cls-6" x="519" y="62" width="23" height="25"/>
          <rect class="cls-6" x="525" y="99" width="17" height="13"/>
          <rect class="cls-6" x="517" y="104" width="14" height="9"/>
          <rect class="cls-6" x="486" y="55" width="16" height="7"/>
          <rect class="cls-6" x="478" y="59" width="13" height="13"/>
          <rect class="cls-6" x="469" y="66" width="22" height="35"/>
          <rect class="cls-6" x="474" y="94" width="22" height="15"/>
          <rect class="cls-6" x="484" y="104" width="18" height="16"/>
          <rect class="cls-6" x="496" y="109" width="21" height="9"/>
          <rect class="cls-6" x="512" y="106" width="12" height="12"/>
          <rect class="cls-6" x="480" y="77" width="57" height="10"/>
        </g>
        <g>
          <rect class="cls-6" x="352" y="51" width="23" height="8"/>
          <rect class="cls-6" x="370" y="55" width="21" height="32"/>
          <rect class="cls-6" x="387" y="64" width="7" height="21"/>
          <rect class="cls-6" x="388" y="51" width="16" height="8"/>
          <rect class="cls-6" x="399" y="54" width="12" height="12"/>
          <rect class="cls-6" x="343" y="54" width="19" height="6"/>
          <rect class="cls-6" x="335" y="58" width="20" height="30"/>
          <rect class="cls-6" x="329" y="66" width="10" height="19"/>
          <rect class="cls-6" x="342" y="87" width="15" height="7"/>
          <rect class="cls-6" x="352" y="90" width="23" height="8"/>
          <rect class="cls-6" x="367" y="85" width="19" height="8"/>
          <rect class="cls-6" x="339" y="93" width="9" height="7"/>
          <rect class="cls-6" x="332" y="98" width="16" height="11"/>
          <rect class="cls-6" x="337" y="107" width="41" height="16"/>
          <rect class="cls-6" x="374" y="109" width="22" height="19"/>
          <rect class="cls-6" x="390" y="116" width="9" height="21"/>
          <rect class="cls-6" x="385" y="120" width="8" height="22"/>
          <rect class="cls-6" x="380" y="140" width="16" height="6"/>
          <rect class="cls-6" x="390" y="132" width="7" height="10"/>
          <rect class="cls-6" x="370" y="143" width="20" height="6"/>
          <rect class="cls-6" x="348" y="146" width="31" height="7"/>
          <rect class="cls-6" x="337" y="142" width="12" height="9"/>
          <rect class="cls-6" x="326" y="131" width="19" height="16"/>
          <rect class="cls-6" x="330" y="127" width="12" height="8"/>
        </g>
        <g>
          <rect class="cls-6" x="425" y="18" width="23" height="97"/>
          <rect class="cls-6" x="411" y="108" width="47" height="12"/>
          <rect class="cls-6" x="413" y="20" width="14" height="9"/>
        </g>
        <g>
          <rect class="cls-6" x="563" y="20" width="17" height="59"/>
          <rect class="cls-6" x="559" y="96" width="24" height="24"/>
          <rect class="cls-6" x="559" y="15" width="26" height="40"/>
        </g>
      </g>
      <g>
        <g>
          <rect class="cls-2" x="106" y="13" width="14" height="37"/>
          <rect class="cls-2" x="93" y="18" width="17" height="17"/>
          <rect class="cls-2" x="72" y="13" width="27" height="10"/>
          <rect class="cls-2" x="52" y="13" width="26" height="10"/>
          <rect class="cls-2" x="34" y="18" width="35" height="14"/>
          <rect class="cls-2" x="24" y="29" width="23" height="16"/>
          <rect class="cls-2" x="17" y="41" width="30" height="35"/>
          <rect class="cls-2" x="24" y="67" width="23" height="25"/>
          <rect class="cls-2" x="32" y="87" width="27" height="13"/>
          <rect class="cls-2" x="45" y="94" width="24" height="15"/>
          <rect class="cls-2" x="62" y="100" width="19" height="11"/>
          <rect class="cls-2" x="75" y="102" width="18" height="7"/>
          <rect class="cls-2" x="89" y="94" width="34" height="15"/>
          <rect class="cls-2" x="93" y="70" width="27" height="27"/>
          <rect class="cls-2" x="78" y="65" width="55" height="11"/>
        </g>
        <g>
          <rect class="cls-2" x="172" y="41" width="23" height="14"/>
          <rect class="cls-2" x="188" y="45" width="19" height="19"/>
          <rect class="cls-2" x="195" y="55" width="23" height="35"/>
          <rect class="cls-2" x="195" y="87" width="17" height="13"/>
          <rect class="cls-2" x="193" y="97" width="14" height="9"/>
          <rect class="cls-2" x="162" y="48" width="16" height="7"/>
          <rect class="cls-2" x="154" y="52" width="13" height="13"/>
          <rect class="cls-2" x="145" y="59" width="22" height="35"/>
          <rect class="cls-2" x="150" y="87" width="22" height="15"/>
          <rect class="cls-2" x="160" y="97" width="18" height="16"/>
          <rect class="cls-2" x="172" y="102" width="21" height="9"/>
          <rect class="cls-2" x="188" y="99" width="12" height="12"/>
        </g>
        <g>
          <rect class="cls-2" x="263" y="45" width="23" height="14"/>
          <rect class="cls-2" x="279" y="49" width="19" height="19"/>
          <rect class="cls-2" x="286" y="59" width="23" height="35"/>
          <rect class="cls-2" x="286" y="91" width="17" height="13"/>
          <rect class="cls-2" x="284" y="101" width="14" height="9"/>
          <rect class="cls-2" x="253" y="52" width="16" height="7"/>
          <rect class="cls-2" x="245" y="56" width="13" height="13"/>
          <rect class="cls-2" x="236" y="62" width="22" height="35"/>
          <rect class="cls-2" x="241" y="91" width="22" height="15"/>
          <rect class="cls-2" x="251" y="101" width="18" height="16"/>
          <rect class="cls-2" x="263" y="106" width="21" height="9"/>
          <rect class="cls-2" x="279" y="103" width="12" height="12"/>
        </g>
        <g>
          <rect class="cls-2" x="491" y="42" width="23" height="14"/>
          <rect class="cls-2" x="507" y="46" width="19" height="19"/>
          <rect class="cls-2" x="514" y="56" width="23" height="25"/>
          <rect class="cls-2" x="520" y="93" width="17" height="13"/>
          <rect class="cls-2" x="512" y="98" width="14" height="9"/>
          <rect class="cls-2" x="481" y="49" width="16" height="7"/>
          <rect class="cls-2" x="473" y="53" width="13" height="13"/>
          <rect class="cls-2" x="464" y="60" width="22" height="35"/>
          <rect class="cls-2" x="469" y="88" width="22" height="15"/>
          <rect class="cls-2" x="479" y="98" width="18" height="16"/>
          <rect class="cls-2" x="491" y="103" width="21" height="9"/>
          <rect class="cls-2" x="507" y="100" width="12" height="12"/>
          <rect class="cls-2" x="475" y="71" width="57" height="10"/>
        </g>
        <g>
          <rect class="cls-2" x="347" y="45" width="23" height="8"/>
          <rect class="cls-2" x="365" y="49" width="21" height="32"/>
          <rect class="cls-2" x="382" y="58" width="7" height="21"/>
          <rect class="cls-2" x="383" y="45" width="16" height="8"/>
          <rect class="cls-2" x="394" y="48" width="12" height="12"/>
          <rect class="cls-2" x="338" y="48" width="19" height="6"/>
          <rect class="cls-2" x="330" y="52" width="20" height="30"/>
          <rect class="cls-2" x="324" y="60" width="10" height="19"/>
          <rect class="cls-2" x="337" y="81" width="15" height="7"/>
          <rect class="cls-2" x="347" y="84" width="23" height="8"/>
          <rect class="cls-2" x="362" y="79" width="19" height="8"/>
          <rect class="cls-2" x="334" y="87" width="9" height="7"/>
          <rect class="cls-2" x="327" y="92" width="16" height="11"/>
          <rect class="cls-2" x="332" y="101" width="41" height="16"/>
          <rect class="cls-2" x="369" y="103" width="22" height="19"/>
          <rect class="cls-2" x="385" y="110" width="9" height="21"/>
          <rect class="cls-2" x="380" y="114" width="8" height="22"/>
          <rect class="cls-2" x="375" y="134" width="16" height="6"/>
          <rect class="cls-2" x="385" y="126" width="7" height="10"/>
          <rect class="cls-2" x="365" y="137" width="20" height="6"/>
          <rect class="cls-2" x="343" y="140" width="31" height="7"/>
          <rect class="cls-2" x="332" y="136" width="12" height="9"/>
          <rect class="cls-2" x="321" y="125" width="19" height="16"/>
          <rect class="cls-2" x="325" y="121" width="12" height="8"/>
        </g>
        <g>
          <rect class="cls-2" x="420" y="12" width="23" height="97"/>
          <rect class="cls-2" x="406" y="102" width="47" height="12"/>
          <rect class="cls-2" x="408" y="14" width="14" height="9"/>
        </g>
        <g>
          <rect class="cls-2" x="558" y="14" width="17" height="59"/>
          <rect class="cls-2" x="554" y="90" width="24" height="24"/>
          <rect class="cls-2" x="554" y="9" width="26" height="40"/>
        </g>
      </g>
      <g>
        <rect class="cls-5" x="89" y="4" width="14" height="37"/>
        <rect class="cls-5" x="76" y="9" width="17" height="17"/>
        <rect class="cls-5" x="55" y="4" width="27" height="10"/>
        <rect class="cls-5" x="35" y="4" width="26" height="10"/>
        <rect class="cls-5" x="17" y="9" width="35" height="14"/>
        <rect class="cls-5" x="7" y="20" width="23" height="16"/>
        <rect class="cls-5" y="32" width="30" height="35"/>
        <rect class="cls-5" x="7" y="58" width="23" height="25"/>
        <rect class="cls-5" x="15" y="78" width="27" height="13"/>
        <rect class="cls-5" x="28" y="85" width="24" height="15"/>
        <rect class="cls-5" x="45" y="91" width="19" height="11"/>
        <rect class="cls-5" x="58" y="93" width="18" height="7"/>
        <rect class="cls-5" x="72" y="85" width="34" height="15"/>
        <rect class="cls-5" x="76" y="61" width="27" height="27"/>
        <rect class="cls-5" x="61" y="56" width="55" height="11"/>
      </g>
      <g>
        <rect class="cls-4" x="155" y="32" width="23" height="14"/>
        <rect class="cls-4" x="171" y="36" width="19" height="19"/>
        <rect class="cls-4" x="178" y="46" width="23" height="35"/>
        <rect class="cls-4" x="178" y="78" width="17" height="13"/>
        <rect class="cls-4" x="176" y="88" width="14" height="9"/>
        <rect class="cls-4" x="145" y="39" width="16" height="7"/>
        <rect class="cls-4" x="137" y="43" width="13" height="13"/>
        <rect class="cls-4" x="128" y="50" width="22" height="35"/>
        <rect class="cls-4" x="133" y="78" width="22" height="15"/>
        <rect class="cls-4" x="143" y="88" width="18" height="16"/>
        <rect class="cls-4" x="155" y="93" width="21" height="9"/>
        <rect class="cls-4" x="171" y="90" width="12" height="12"/>
      </g>
      <g>
        <rect class="cls-1" x="246" y="36" width="23" height="14"/>
        <rect class="cls-1" x="262" y="40" width="19" height="19"/>
        <rect class="cls-1" x="269" y="50" width="23" height="35"/>
        <rect class="cls-1" x="269" y="82" width="17" height="13"/>
        <rect class="cls-1" x="267" y="92" width="14" height="9"/>
        <rect class="cls-1" x="236" y="43" width="16" height="7"/>
        <rect class="cls-1" x="228" y="47" width="13" height="13"/>
        <rect class="cls-1" x="219" y="53" width="22" height="35"/>
        <rect class="cls-1" x="224" y="82" width="22" height="15"/>
        <rect class="cls-1" x="234" y="92" width="18" height="16"/>
        <rect class="cls-1" x="246" y="97" width="21" height="9"/>
        <rect class="cls-1" x="262" y="94" width="12" height="12"/>
      </g>
      <g>
        <rect class="cls-4" x="474" y="33" width="23" height="14"/>
        <rect class="cls-4" x="490" y="37" width="19" height="19"/>
        <rect class="cls-4" x="497" y="47" width="23" height="25"/>
        <rect class="cls-4" x="503" y="84" width="17" height="13"/>
        <rect class="cls-4" x="495" y="89" width="14" height="9"/>
        <rect class="cls-4" x="464" y="40" width="16" height="7"/>
        <rect class="cls-4" x="456" y="44" width="13" height="13"/>
        <rect class="cls-4" x="447" y="51" width="22" height="35"/>
        <rect class="cls-4" x="452" y="79" width="22" height="15"/>
        <rect class="cls-4" x="462" y="89" width="18" height="16"/>
        <rect class="cls-4" x="474" y="94" width="21" height="9"/>
        <rect class="cls-4" x="490" y="91" width="12" height="12"/>
        <rect class="cls-4" x="458" y="62" width="57" height="10"/>
      </g>
      <g>
        <rect class="cls-5" x="330" y="36" width="23" height="8"/>
        <rect class="cls-5" x="348" y="40" width="21" height="32"/>
        <rect class="cls-5" x="365" y="49" width="7" height="21"/>
        <rect class="cls-5" x="366" y="36" width="16" height="8"/>
        <rect class="cls-5" x="377" y="39" width="12" height="12"/>
        <rect class="cls-5" x="321" y="39" width="19" height="6"/>
        <rect class="cls-5" x="313" y="43" width="20" height="30"/>
        <rect class="cls-5" x="307" y="51" width="10" height="19"/>
        <rect class="cls-5" x="320" y="72" width="15" height="7"/>
        <rect class="cls-5" x="330" y="75" width="23" height="8"/>
        <rect class="cls-5" x="345" y="70" width="19" height="8"/>
        <rect class="cls-5" x="317" y="78" width="9" height="7"/>
        <rect class="cls-5" x="310" y="83" width="16" height="11"/>
        <rect class="cls-5" x="315" y="92" width="41" height="16"/>
        <rect class="cls-5" x="352" y="94" width="22" height="19"/>
        <rect class="cls-5" x="368" y="101" width="9" height="21"/>
        <rect class="cls-5" x="363" y="105" width="8" height="22"/>
        <rect class="cls-5" x="358" y="125" width="16" height="6"/>
        <rect class="cls-5" x="368" y="117" width="7" height="10"/>
        <rect class="cls-5" x="348" y="128" width="20" height="6"/>
        <rect class="cls-5" x="326" y="131" width="31" height="7"/>
        <rect class="cls-5" x="315" y="127" width="12" height="9"/>
        <rect class="cls-5" x="304" y="116" width="19" height="16"/>
        <rect class="cls-5" x="308" y="112" width="12" height="8"/>
      </g>
      <g>
        <rect class="cls-3" x="403" y="3" width="23" height="97"/>
        <rect class="cls-3" x="389" y="93" width="47" height="12"/>
        <rect class="cls-3" x="391" y="5" width="14" height="9"/>
      </g>
      <g>
        <rect class="cls-5" x="541" y="5" width="17" height="59"/>
        <rect class="cls-5" x="537" y="81" width="24" height="24"/>
        <rect class="cls-5" x="537" width="26" height="40"/>
      </g>
    </g>
  </g>
</svg>