<?xml version="1.0" encoding="UTF-8"?>
<svg id="Layer_2" data-name="Layer 2" xmlns="http://www.w3.org/2000/svg" viewBox="0 0 588 147">
  <defs>
    <style>
      .cls-1 {
        fill: #f03;
        stroke-width: 0px;
      }
    </style>
  </defs>
  <g id="_レイヤー_24" data-name="レイヤー 24">
    <g>
      <rect class="cls-1" width="83.64" height="25.34"/>
      <rect class="cls-1" x="58.29" y="45.62" width="29.15" height="22.81"/>
      <rect class="cls-1" x="36.75" y="12.67" width="35.48" height="44.35"/>
      <rect class="cls-1" x="77.3" y="50.69" width="24.08" height="50.69"/>
      <rect class="cls-1" x="97.58" y="35.48" width="24.08" height="15.21"/>
      <rect class="cls-1" x="101.38" y="12.67" width="65.9" height="12.67"/>
      <rect class="cls-1" x="117.85" y="25.34" width="20.28" height="20.28"/>
      <rect class="cls-1" x="49.42" y="97.58" width="68.43" height="11.41"/>
      <rect class="cls-1" x="121.66" y="84.91" width="35.48" height="12.67"/>
      <rect class="cls-1" x="154.6" y="35.48" width="49.42" height="5.07"/>
      <rect class="cls-1" x="160.94" y="38.02" width="11.41" height="16.47"/>
      <rect class="cls-1" x="154.6" y="51.96" width="13.94" height="12.67"/>
      <rect class="cls-1" x="150.8" y="63.36" width="16.47" height="5.07"/>
      <rect class="cls-1" x="147" y="67.16" width="50.69" height="10.14"/>
      <rect class="cls-1" x="141.93" y="73.5" width="17.74" height="15.21"/>
      <rect class="cls-1" x="172.34" y="38.02" width="21.54" height="11.41"/>
      <rect class="cls-1" x="178.68" y="43.09" width="17.74" height="12.67"/>
      <rect class="cls-1" x="179.95" y="51.96" width="20.28" height="19.01"/>
      <rect class="cls-1" x="186.28" y="63.36" width="20.28" height="17.74"/>
      <rect class="cls-1" x="190.09" y="73.5" width="19.01" height="15.21"/>
      <rect class="cls-1" x="191.35" y="81.1" width="22.81" height="19.01"/>
      <rect class="cls-1" x="179.95" y="97.58" width="46.89" height="5.07"/>
      <rect class="cls-1" x="217.97" y="21.54" width="53.22" height="7.6"/>
      <rect class="cls-1" x="283.86" y="11.41" width="46.89" height="10.14"/>
      <rect class="cls-1" x="299.07" y="16.47" width="17.74" height="64.63"/>
      <rect class="cls-1" x="235.71" y="26.61" width="20.28" height="54.49"/>
      <rect class="cls-1" x="249.65" y="46.89" width="50.69" height="10.14"/>
      <rect class="cls-1" x="217.97" y="79.84" width="51.96" height="6.34"/>
      <rect class="cls-1" x="283.86" y="79.84" width="51.96" height="7.6"/>
      <rect class="cls-1" x="354.83" y="21.54" width="49.42" height="8.87"/>
      <rect class="cls-1" x="392.84" y="25.34" width="29.15" height="11.41"/>
      <rect class="cls-1" x="401.72" y="31.68" width="26.61" height="13.94"/>
      <rect class="cls-1" x="409.32" y="41.82" width="22.81" height="16.47"/>
      <rect class="cls-1" x="401.72" y="57.03" width="27.88" height="13.94"/>
      <rect class="cls-1" x="394.11" y="68.43" width="29.15" height="10.14"/>
      <rect class="cls-1" x="383.97" y="77.3" width="30.41" height="8.87"/>
      <rect class="cls-1" x="361.16" y="81.1" width="43.09" height="7.6"/>
      <rect class="cls-1" x="347.22" y="74.77" width="27.88" height="10.14"/>
      <rect class="cls-1" x="334.55" y="68.43" width="26.61" height="10.14"/>
      <rect class="cls-1" x="326.95" y="58.29" width="29.15" height="12.67"/>
      <rect class="cls-1" x="321.88" y="48.16" width="27.88" height="12.67"/>
      <rect class="cls-1" x="328.22" y="38.02" width="20.28" height="13.94"/>
      <rect class="cls-1" x="335.82" y="30.41" width="19.01" height="7.6"/>
      <rect class="cls-1" x="340.89" y="22.81" width="21.54" height="7.6"/>
      <rect class="cls-1" x="467.61" y="13.94" width="49.42" height="8.87"/>
      <rect class="cls-1" x="505.63" y="17.74" width="29.15" height="11.41"/>
      <rect class="cls-1" x="514.5" y="24.08" width="26.61" height="13.94"/>
      <rect class="cls-1" x="522.1" y="34.22" width="22.81" height="16.47"/>
      <rect class="cls-1" x="514.5" y="49.42" width="27.88" height="13.94"/>
      <rect class="cls-1" x="506.9" y="60.83" width="29.15" height="10.14"/>
      <rect class="cls-1" x="496.76" y="69.7" width="30.41" height="8.87"/>
      <rect class="cls-1" x="473.95" y="73.5" width="43.09" height="7.6"/>
      <rect class="cls-1" x="460.01" y="67.16" width="27.88" height="10.14"/>
      <rect class="cls-1" x="447.34" y="60.83" width="26.61" height="10.14"/>
      <rect class="cls-1" x="439.73" y="50.69" width="29.15" height="12.67"/>
      <rect class="cls-1" x="434.66" y="40.55" width="27.88" height="12.67"/>
      <rect class="cls-1" x="441" y="30.41" width="20.28" height="13.94"/>
      <rect class="cls-1" x="448.6" y="22.81" width="19.01" height="7.6"/>
      <rect class="cls-1" x="453.67" y="15.21" width="21.54" height="7.6"/>
      <rect class="cls-1" x="557.59" width="30.41" height="21.54"/>
      <rect class="cls-1" x="557.59" y="13.94" width="17.74" height="51.96"/>
      <rect class="cls-1" x="572.79" y="11.41" width="8.87" height="22.81"/>
      <rect class="cls-1" x="552.52" y="77.3" width="15.21" height="17.74"/>
      <rect class="cls-1" x="344.69" y="96.31" width="36.75" height="5.07"/>
      <rect class="cls-1" x="357.36" y="98.84" width="10.14" height="41.82"/>
      <rect class="cls-1" x="353.56" y="136.86" width="10.14" height="6.34"/>
      <rect class="cls-1" x="348.49" y="140.66" width="8.87" height="6.34"/>
      <rect class="cls-1" x="386.51" y="102.65" width="29.15" height="3.8"/>
      <rect class="cls-1" x="378.91" y="131.79" width="10.14" height="7.6"/>
      <rect class="cls-1" x="383.97" y="125.46" width="5.07" height="10.14"/>
      <rect class="cls-1" x="386.51" y="119.12" width="6.34" height="8.87"/>
      <rect class="cls-1" x="389.04" y="112.78" width="6.34" height="6.34"/>
      <rect class="cls-1" x="391.58" y="103.91" width="7.6" height="10.14"/>
      <rect class="cls-1" x="397.91" y="105.18" width="8.87" height="5.07"/>
      <rect class="cls-1" x="400.45" y="107.72" width="7.6" height="7.6"/>
      <rect class="cls-1" x="401.72" y="114.05" width="10.14" height="7.6"/>
      <rect class="cls-1" x="405.52" y="117.85" width="7.6" height="7.6"/>
      <rect class="cls-1" x="406.78" y="121.66" width="7.6" height="8.87"/>
      <rect class="cls-1" x="409.32" y="126.72" width="7.6" height="10.14"/>
      <rect class="cls-1" x="402.98" y="139.4" width="21.54" height="3.8"/>
      <rect class="cls-1" x="410.59" y="133.06" width="6.34" height="8.87"/>
      <rect class="cls-1" x="387.78" y="122.92" width="21.54" height="5.07"/>
      <rect class="cls-1" x="373.84" y="139.4" width="16.47" height="3.8"/>
      <rect class="cls-1" x="475.22" y="102.65" width="29.15" height="3.8"/>
      <rect class="cls-1" x="467.61" y="131.79" width="10.14" height="7.6"/>
      <rect class="cls-1" x="472.68" y="125.46" width="5.07" height="10.14"/>
      <rect class="cls-1" x="475.22" y="119.12" width="6.34" height="8.87"/>
      <rect class="cls-1" x="477.75" y="112.78" width="6.34" height="6.34"/>
      <rect class="cls-1" x="480.28" y="103.91" width="7.6" height="10.14"/>
      <rect class="cls-1" x="486.62" y="105.18" width="8.87" height="5.07"/>
      <rect class="cls-1" x="489.16" y="107.72" width="7.6" height="7.6"/>
      <rect class="cls-1" x="490.42" y="114.05" width="10.14" height="7.6"/>
      <rect class="cls-1" x="494.22" y="117.85" width="7.6" height="7.6"/>
      <rect class="cls-1" x="495.49" y="121.66" width="7.6" height="8.87"/>
      <rect class="cls-1" x="498.03" y="126.72" width="7.6" height="10.14"/>
      <rect class="cls-1" x="491.69" y="139.4" width="21.54" height="3.8"/>
      <rect class="cls-1" x="499.29" y="133.06" width="6.34" height="8.87"/>
      <rect class="cls-1" x="476.48" y="122.92" width="21.54" height="5.07"/>
      <rect class="cls-1" x="462.54" y="139.4" width="16.47" height="3.8"/>
      <rect class="cls-1" x="429.59" y="102.65" width="29.15" height="5.07"/>
      <rect class="cls-1" x="453.67" y="105.18" width="10.14" height="5.07"/>
      <rect class="cls-1" x="456.21" y="108.98" width="10.14" height="6.34"/>
      <rect class="cls-1" x="458.74" y="114.05" width="6.34" height="5.07"/>
      <rect class="cls-1" x="457.47" y="119.12" width="6.34" height="2.53"/>
      <rect class="cls-1" x="453.67" y="121.66" width="8.87" height="2.53"/>
      <rect class="cls-1" x="447.34" y="122.92" width="11.41" height="5.07"/>
      <rect class="cls-1" x="434.66" y="106.45" width="10.14" height="34.22"/>
      <rect class="cls-1" x="428.33" y="139.4" width="25.34" height="3.8"/>
      <rect class="cls-1" x="517.03" y="102.65" width="16.47" height="6.34"/>
      <rect class="cls-1" x="527.17" y="106.45" width="10.14" height="8.87"/>
      <rect class="cls-1" x="532.24" y="111.52" width="8.87" height="7.6"/>
      <rect class="cls-1" x="536.04" y="116.59" width="8.87" height="7.6"/>
      <rect class="cls-1" x="539.84" y="121.66" width="8.87" height="8.87"/>
      <rect class="cls-1" x="543.65" y="126.72" width="8.87" height="7.6"/>
      <rect class="cls-1" x="548.72" y="129.26" width="10.14" height="10.14"/>
      <rect class="cls-1" x="555.05" y="103.91" width="5.07" height="40.55"/>
      <rect class="cls-1" x="547.45" y="102.65" width="17.74" height="3.8"/>
      <rect class="cls-1" x="522.1" y="107.72" width="6.34" height="35.48"/>
      <rect class="cls-1" x="517.03" y="139.4" width="20.28" height="3.8"/>
    </g>
  </g>
</svg>